<svg width="84" height="22" viewBox="0 0 84 22" fill="none" xmlns="http://www.w3.org/2000/svg">
<path d="M10.5576 1.5C15.5123 1.5 19.6151 5.67022 19.6152 10.9229C19.6152 16.1756 15.5123 20.3457 10.5576 20.3457C5.60292 20.3457 1.5 16.1756 1.5 10.9229C1.50012 5.67025 5.60299 1.50004 10.5576 1.5Z" stroke="#252629" stroke-width="3"/>
<path d="M42.2305 1.5C47.1851 1.5 51.288 5.67022 51.2881 10.9229C51.2881 16.1756 47.1852 20.3457 42.2305 20.3457C37.2758 20.3457 33.1729 16.1756 33.1729 10.9229C33.173 5.67025 37.2758 1.50004 42.2305 1.5Z" stroke="#252629" stroke-width="3"/>
<path d="M72.8486 1.5C77.8033 1.5 81.9061 5.67022 81.9062 10.9229C81.9062 16.1756 77.8034 20.3457 72.8486 20.3457C67.8939 20.3457 63.791 16.1756 63.791 10.9229C63.7911 5.67025 67.894 1.50004 72.8486 1.5Z" stroke="#252629" stroke-width="3"/>
</svg>
