<svg width="69" height="69" viewBox="0 0 69 69" fill="none" xmlns="http://www.w3.org/2000/svg">
<path d="M14.1608 24.9896H12.2008V1.92452C12.2008 0.863241 11.2714 0 10.1306 0C8.98979 0 8.05956 0.863241 8.05956 1.92452V24.9896H6.10039C2.73642 24.9896 0 27.5335 0 30.6607V34.4073C0 37.5346 2.73642 40.0784 6.10039 40.0784H8.05956V66.8893C8.05956 67.9514 8.98897 68.8146 10.1306 68.8146C11.2722 68.8146 12.2016 67.9514 12.2016 66.8893V40.0784H14.1608C17.5247 40.0784 20.262 37.5346 20.262 34.4073V30.6607C20.262 27.5335 17.5247 24.9896 14.1608 24.9896ZM16.1208 34.4073C16.1208 35.412 15.2415 36.2294 14.1608 36.2294H6.10039C5.01964 36.2294 4.1404 35.4128 4.1404 34.4073V30.6607C4.1404 29.656 5.01882 28.8387 6.10039 28.8387H14.1608C15.2407 28.8387 16.1208 29.656 16.1208 30.6607V34.4073Z" fill="#252629"/>
<path d="M38.3393 39.9759H36.3793V1.92452C36.3802 0.863241 35.4516 0 34.3091 0C33.1675 0 32.2381 0.863241 32.2381 1.92452V39.9752H30.2789C26.915 39.9752 24.1777 42.519 24.1777 45.6463V49.3928C24.1777 52.5201 26.915 55.0647 30.2789 55.0647H32.2389V66.8893C32.2381 67.9514 33.1675 68.8146 34.3091 68.8146C35.4516 68.8146 36.3802 67.9514 36.3802 66.8893V55.0655H38.3393C41.7033 55.0655 44.4405 52.5224 44.4405 49.3951V45.647C44.4405 42.5205 41.7033 39.9759 38.3393 39.9759ZM40.2985 49.3936C40.2985 50.3975 39.4201 51.2157 38.3393 51.2157H30.2789C29.199 51.2157 28.3198 50.3991 28.3198 49.3936V45.647C28.3198 44.6431 29.1982 43.825 30.2789 43.825H38.3393C39.4193 43.825 40.2985 44.6416 40.2985 45.647V49.3936Z" fill="#252629"/>
<path d="M62.5249 13.7492H60.5657V1.92452C60.5657 0.863241 59.6363 0 58.4947 0C57.3522 0 56.4228 0.863241 56.4228 1.92452V13.7492H54.4645C51.1005 13.7492 48.3633 16.293 48.3633 19.4202V23.1668C48.3633 26.2948 51.1005 28.8379 54.4645 28.8379H56.4245V66.8901C56.4245 67.9521 57.3547 68.8154 58.4955 68.8154C59.6379 68.8154 60.5674 67.9521 60.5674 66.8901V28.8379H62.5249C65.8897 28.8379 68.6253 26.2941 68.6253 23.1668V19.4202C68.6253 16.293 65.8897 13.7492 62.5249 13.7492ZM64.4857 23.1668C64.4857 24.1715 63.6073 24.9889 62.5249 24.9889H54.4645C53.3846 24.9889 52.5045 24.1715 52.5045 23.1668V19.4202C52.5045 18.4156 53.3829 17.5982 54.4645 17.5982H62.5249C63.6056 17.5982 64.4857 18.4156 64.4857 19.4202V23.1668Z" fill="#252629"/>
</svg>
