<svg width="124" height="125" viewBox="0 0 124 125" fill="none" xmlns="http://www.w3.org/2000/svg">
<ellipse cx="61.7629" cy="62.6258" rx="61.7625" ry="61.7625" transform="rotate(90 61.7629 62.6258)" fill="#D9D9D9"/>
<path d="M115.889 62.627C115.888 92.6711 91.5324 117.026 61.4883 117.026C31.4443 117.026 7.08907 92.6709 7.08886 62.6269C7.08887 32.5828 31.4442 8.22677 61.4883 8.22656C91.5326 8.22656 115.889 32.5827 115.889 62.627Z" fill="#F5F5F1" stroke="black"/>
<ellipse cx="61.4881" cy="60.9758" rx="6.8625" ry="6.8625" transform="rotate(90 61.4881 60.9758)" fill="#252629"/>
<line x1="59.7949" y1="115.875" x2="59.7949" y2="109.012" stroke="black" stroke-width="4"/>
<line x1="59.7627" y1="15.9609" x2="59.7627" y2="9.09844" stroke="black" stroke-width="4"/>
<line x1="77.9351" y1="18.873" x2="79.5372" y2="12.2001" stroke="black" stroke-width="4"/>
<line x1="105.35" y1="79.1679" x2="111.69" y2="81.794" stroke="black" stroke-width="4"/>
<line x1="96.3918" y1="93.3241" x2="101.244" y2="98.1766" stroke="black" stroke-width="4"/>
<line x1="80.63" y1="104.957" x2="83.2561" y2="111.297" stroke="black" stroke-width="4"/>
<line x1="40.7001" y1="111.844" x2="43.3263" y2="105.504" stroke="black" stroke-width="4"/>
<line x1="24.3895" y1="100.648" x2="29.242" y2="95.7958" stroke="black" stroke-width="4"/>
<line x1="11.0383" y1="81.7929" x2="17.3785" y2="79.1667" stroke="black" stroke-width="4"/>
<line x1="93.5633" y1="28.7303" x2="98.4158" y2="23.8778" stroke="black" stroke-width="4"/>
<line x1="104.918" y1="45.289" x2="111.258" y2="42.6628" stroke="black" stroke-width="4"/>
<line x1="107.879" y1="60.625" x2="114.741" y2="60.625" stroke="black" stroke-width="4"/>
<line x1="8.23535" y1="60.625" x2="15.0979" y2="60.625" stroke="black" stroke-width="4"/>
<line x1="11.7458" y1="42.6601" x2="18.086" y2="45.2862" stroke="black" stroke-width="4"/>
<line x1="24.4728" y1="23.8788" x2="29.3253" y2="28.7313" stroke="black" stroke-width="4"/>
<line x1="42.7491" y1="12.7268" x2="45.3753" y2="19.0669" stroke="black" stroke-width="4"/>
<path d="M61.9128 18.5395C61.5197 18.1515 60.8866 18.1556 60.4986 18.5486L54.1758 24.9535C53.7878 25.3466 53.7919 25.9797 54.1849 26.3677C54.578 26.7557 55.2111 26.7516 55.5991 26.3586L61.2194 20.6654L66.9126 26.2856C67.3056 26.6736 67.9388 26.6695 68.3268 26.2765C68.7148 25.8834 68.7107 25.2503 68.3177 24.8623L61.9128 18.5395ZM61.4883 62.3477L62.4883 62.3412L62.2102 19.2447L61.2102 19.2512L60.2103 19.2576L60.4883 62.3541L61.4883 62.3477Z" fill="#252629"/>
<path d="M89.2815 77.5662C89.8002 77.3766 90.067 76.8024 89.8774 76.2837L86.7877 67.8307C86.5981 67.312 86.0239 67.0452 85.5052 67.2348C84.9864 67.4244 84.7196 67.9986 84.9092 68.5173L87.6557 76.0311L80.1419 78.7775C79.6231 78.9671 79.3563 79.5413 79.5459 80.06C79.7355 80.5787 80.3098 80.8456 80.8285 80.656L89.2815 77.5662ZM61.7627 64L61.3413 64.9069L88.5168 77.5339L88.9382 76.627L89.3596 75.7201L62.1841 63.0931L61.7627 64Z" fill="#252629"/>
</svg>
