<svg width="79" height="71" viewBox="0 0 79 71" fill="none" xmlns="http://www.w3.org/2000/svg">
<path d="M44.8027 0.464794C44.2197 0.155263 43.5846 0 42.9096 0C41.3939 0 39.82 0.790249 38.2349 2.34985L22.7679 17.5577C21.1472 19.1501 17.8546 20.5485 15.7212 20.5485H10.1259C4.54283 20.5494 0 25.7607 0 32.1663V38.5809C0 44.9884 4.54283 50.1997 10.1259 50.1997H15.7212C17.8546 50.1997 21.1472 51.5951 22.7679 53.1875L38.2349 68.3963C39.8209 69.9549 41.393 70.7452 42.9096 70.7452C43.5802 70.7452 44.2171 70.5899 44.8044 70.2824C45.9332 69.6842 47.8263 67.9873 47.8263 63.3363V7.41082C47.8263 2.75592 45.9306 1.06096 44.8027 0.464794ZM43.5568 63.3363C43.5568 65.0233 43.1603 65.7588 43.0172 65.8345C43.0137 65.8365 42.9859 65.8514 42.9165 65.8514C42.5868 65.8514 41.8901 65.5429 41.0121 64.68L35.0837 58.8506L25.5452 49.4722C23.1662 47.1343 18.8515 45.3039 15.7203 45.3039H10.1251C6.89493 45.3039 4.26692 42.2902 4.26692 38.5838V32.1683C4.26779 28.4609 6.89579 25.4462 10.1259 25.4462H15.7212C18.8532 25.4462 23.1688 23.6139 25.546 21.276L41.0138 6.06819C41.8919 5.20529 42.5868 4.89775 42.9148 4.89775C42.9842 4.89775 43.012 4.91168 43.0172 4.91467C43.1612 4.98932 43.5568 5.72383 43.5568 7.41182V63.3363Z" fill="#252629"/>
<path d="M55.0675 47.7747C54.0628 48.4734 53.6715 49.8887 54.1565 51.0651C54.5027 51.9031 55.2375 52.4435 56.0288 52.4435C56.3785 52.4435 56.7272 52.3361 57.0309 52.132C62.2132 48.6635 65.4311 42.242 65.4311 35.3766C65.4311 28.5122 62.214 22.0916 57.0361 18.6221C56.729 18.4171 56.3819 18.3086 56.0314 18.3086C55.241 18.3086 54.5044 18.851 54.16 19.689C53.6724 20.8655 54.0645 22.2787 55.0692 22.9774C58.8277 25.597 61.1625 30.3484 61.1625 35.3776C61.1625 40.4047 58.8277 45.1561 55.0675 47.7747Z" fill="#252629"/>
<path d="M56.6966 2.77948C55.5661 2.41023 54.3706 3.24029 54.1025 4.55406C53.837 5.84194 54.5137 7.14774 55.6408 7.52595C66.5137 11.1517 73.8181 22.3396 73.8181 35.3708C73.8181 48.3999 66.5137 59.5898 55.6416 63.2166C54.512 63.5918 53.8361 64.8966 54.1042 66.1865C54.3307 67.2853 55.1653 68.0516 56.1327 68.0516C56.3244 68.0516 56.5127 68.0218 56.6984 67.9601C69.4913 63.7699 78.0868 50.6741 78.0868 35.3708C78.0868 20.0664 69.4905 6.96959 56.6966 2.77948Z" fill="#252629"/>
</svg>
