<svg width="79" height="88" viewBox="0 0 79 88" fill="none" xmlns="http://www.w3.org/2000/svg">
<path d="M78.7519 44.0495C76.3776 24.3705 60.6066 9.3575 41.617 8.26677V2.39591C41.617 1.07319 40.6249 0 39.4022 0C38.1795 0 37.1874 1.07319 37.1874 2.39591V8.26677C18.1978 9.35848 2.42675 24.3705 0.0524827 44.0495C-0.174582 45.9317 0.339918 47.7574 1.50317 49.1893C2.7277 50.6972 4.51898 51.5628 6.41749 51.5628H37.1865V76.8914C37.1865 80.2231 34.6807 82.9348 31.6009 82.9348C28.5211 82.9348 26.0162 80.2231 26.0162 76.8914V73.2761C26.0162 71.9543 25.0242 70.8802 23.8014 70.8802C22.5787 70.8802 21.5876 71.9543 21.5876 73.2761V76.8914C21.5876 82.8666 26.0793 87.7256 31.6009 87.7256C37.1243 87.7256 41.6161 82.8666 41.6161 76.8914V51.5618H72.3851C74.2827 51.5618 76.0749 50.6962 77.2985 49.1883C78.4645 47.7574 78.979 45.9317 78.7519 44.0495ZM73.9709 46.0302C73.5889 46.5009 73.0113 46.7729 72.3851 46.7729H6.41839C5.79397 46.7729 5.21549 46.5029 4.83345 46.0302C4.61359 45.7601 4.36851 45.3049 4.4451 44.6704C6.62473 26.6085 21.6524 12.9884 39.4022 12.9884C57.152 12.9884 72.1797 26.6085 74.3593 44.6704C74.4359 45.3049 74.1908 45.7572 73.9709 46.0302Z" fill="#252629"/>
</svg>
