<svg width="45" height="47" viewBox="0 0 45 47" fill="none" xmlns="http://www.w3.org/2000/svg">
<path d="M15.4814 6.80371C10.5632 15.8121 9.26215 22.4916 10.2051 27.2861C11.1929 32.3086 14.6205 35.1624 18.666 36.4004C22.6892 37.6315 27.3506 37.2804 30.9512 35.9111C32.7531 35.2259 34.3199 34.2734 35.4111 33.1055C35.46 33.0532 35.5068 32.9995 35.5537 32.9463C35.0319 35.9106 34.0693 38.6438 32.4717 40.8301C30.2005 43.9381 26.6075 46 21 46C15.8591 46 10.8602 44.2864 7.08887 40.8193C3.32937 37.363 0.754066 32.1314 0.500977 25.0176C1.24478 18.4452 3.45137 14.3245 6.34277 11.5986C8.95197 9.13893 12.1601 7.77536 15.4814 6.80371Z" stroke="black"/>
<path d="M26.5449 16.373L26.6572 16.7188H32.0215L27.9756 19.6582L27.6816 19.8711L27.7939 20.2168L29.3389 24.9717L25.2939 22.0332L25 21.8193L24.7061 22.0332L20.6602 24.9717L22.2061 20.2168L22.3184 19.8711L22.0244 19.6582L17.9785 16.7188H23.3428L23.4551 16.373L25 11.6172L26.5449 16.373Z" stroke="black"/>
<path d="M34.8711 4.30078L34.9834 4.64551H38.168L35.8857 6.30371L35.5918 6.51758L35.7041 6.8623L36.5752 9.54395L34.2939 7.8877L34 7.67383L33.7061 7.8877L31.4238 9.54395L32.2959 6.8623L32.4082 6.51758L32.1143 6.30371L29.832 4.64551H33.0166L33.1289 4.30078L34 1.61816L34.8711 4.30078Z" stroke="black"/>
<path d="M40.2598 21.9551L40.3711 22.3008H43.1914L41.2041 23.7451L40.9102 23.958L41.0225 24.3037L41.7812 26.6396L39.7939 25.1963L39.5 24.9824L39.2061 25.1963L37.2178 26.6396L37.9775 24.3037L38.0898 23.958L37.7959 23.7451L35.8086 22.3008H38.6289L38.7402 21.9551L39.5 19.6172L40.2598 21.9551Z" stroke="black"/>
</svg>
