<svg width="42" height="42" viewBox="0 0 42 42" fill="none" xmlns="http://www.w3.org/2000/svg">
<circle cx="21" cy="21" r="9.5" stroke="#FFD72F" stroke-width="3"/>
<rect x="19.5" y="0.5" width="3" height="6" rx="1.5" fill="#FFD72F" stroke="#FFD72F"/>
<rect x="19.5" y="35.5" width="3" height="6" rx="1.5" fill="#FFD72F" stroke="#FFD72F"/>
<rect x="36.1543" y="33.8153" width="3" height="6" rx="1.5" transform="rotate(134.137 36.1543 33.8153)" fill="#FFD72F" stroke="#FFD72F"/>
<rect x="12.1016" y="9.88565" width="3" height="6" rx="1.5" transform="rotate(134.137 12.1016 9.88565)" fill="#FFD72F" stroke="#FFD72F"/>
<rect x="34.2471" y="5.70521" width="3" height="6" rx="1.5" transform="rotate(49.196 34.2471 5.70521)" fill="#FFD72F" stroke="#FFD72F"/>
<rect x="9.9872" y="29.6094" width="3" height="6" rx="1.5" transform="rotate(44.4548 9.9872 29.6094)" fill="#FFD72F" stroke="#FFD72F"/>
<rect x="35.5" y="22.5" width="3" height="6" rx="1.5" transform="rotate(-90 35.5 22.5)" fill="#FFD72F" stroke="#FFD72F"/>
<rect x="0.5" y="22.5" width="3" height="6" rx="1.5" transform="rotate(-90 0.5 22.5)" fill="#FFD72F" stroke="#FFD72F"/>
</svg>
