<svg width="67" height="55" viewBox="0 0 67 55" fill="none" xmlns="http://www.w3.org/2000/svg">
<path d="M40.4106 12.9453C51.729 12.9453 60.896 22.2076 60.896 33.623C60.896 34.0107 60.8817 34.3958 60.8608 34.7783C64.2054 36.4717 66.4995 39.9637 66.4995 43.9951C66.4994 49.6822 61.9321 54.3006 56.2876 54.3008H17.063C8.94248 54.3007 2.36768 47.6556 2.36768 39.4688C2.36781 31.282 8.94257 24.6368 17.063 24.6367C18.6552 24.6367 20.1886 24.8949 21.6255 25.3682C24.782 18.0599 32.0015 12.9454 40.4106 12.9453Z" fill="white" stroke="black"/>
<path d="M23.7871 7.74316C28.0016 7.74316 31.8385 9.37668 34.709 12.0488C34.8407 12.1715 34.8962 12.3552 34.8545 12.5303C34.8128 12.7053 34.6806 12.8444 34.5078 12.8945C28.7453 14.565 23.9803 18.6215 21.3291 23.9365C21.2247 24.1458 20.9888 24.2551 20.7617 24.1992C19.5755 23.9071 18.3367 23.752 17.0635 23.752C13.9247 23.752 11.0039 24.6901 8.55957 26.3037C8.4148 26.3993 8.23057 26.4129 8.07324 26.3398C7.91596 26.2667 7.80747 26.1175 7.78711 25.9453C7.71227 25.3096 7.67384 24.6625 7.67383 24.0068C7.67383 15.0293 14.8835 7.74331 23.7871 7.74316ZM2.24512 22.3682L4.2998 22.4756C5.12201 22.5184 5.71973 23.2193 5.71973 24.0068C5.71954 24.7942 5.1219 25.4953 4.2998 25.5381L2.24512 25.6445C1.3154 25.6929 0.500208 24.9687 0.5 24.0068C0.5 23.0448 1.31528 22.3197 2.24512 22.3682ZM3.61914 12.248C4.1007 11.408 5.17197 11.1992 5.95117 11.7109L7.67285 12.8428C8.35822 13.2931 8.53129 14.1966 8.13965 14.8799C7.74778 15.5634 6.87899 15.87 6.14551 15.4922L4.31543 14.5488C3.48756 14.1219 3.14065 13.0829 3.61914 12.248ZM12.1348 3.65039C12.9705 3.1621 14.0049 3.52121 14.4258 4.35352L15.3604 6.2002C15.7305 6.93231 15.4328 7.80396 14.7529 8.20117C14.0693 8.60056 13.169 8.42152 12.7236 7.73047L11.6025 5.99219C11.1004 5.2126 11.3012 4.13753 12.1348 3.65039ZM33.1484 4.35352C33.5693 3.52128 34.6037 3.16228 35.4395 3.65039C36.2732 4.13753 36.474 5.21253 35.9717 5.99219L34.8516 7.73047C34.4062 8.42153 33.5049 8.60057 32.8213 8.20117C32.1416 7.80385 31.8447 6.93219 32.2148 6.2002L33.1484 4.35352ZM23.7871 0.5C24.7521 0.5 25.4622 1.32984 25.415 2.25586L25.3086 4.33105C25.2666 5.15036 24.578 5.76074 23.7871 5.76074C22.9963 5.76061 22.3076 5.15028 22.2656 4.33105L22.1602 2.25586C22.113 1.32991 22.8222 0.500142 23.7871 0.5Z" fill="white" stroke="black" stroke-linejoin="round"/>
</svg>
