<svg width="65" height="65" viewBox="0 0 65 65" fill="none" xmlns="http://www.w3.org/2000/svg">
<path d="M47.1768 28.4766C48.7504 28.4766 49.7653 30.1026 49.3076 31.5879L47.4717 37.5449C47.3066 38.0812 47.6906 38.54 48.0957 38.54H49.834C51.5636 38.5404 52.5626 40.4647 51.8311 41.9902L42.9014 60.6133C42.7175 60.9963 42.3188 61.1344 41.9775 61.0352C41.643 60.9378 41.384 60.6212 41.4033 60.2139L42.0469 46.7598C42.0692 46.2929 41.7301 45.9698 41.3877 45.9697H39.3086C37.7449 45.9696 36.7309 44.362 37.1719 42.8809L40.9668 30.1357C41.2549 29.1683 42.106 28.4766 43.1045 28.4766H47.1768Z" fill="white" stroke="black" stroke-linejoin="round"/>
<path d="M38.6543 0.5C49.7082 0.500256 58.7305 10.1577 58.7305 22.1494C58.7305 22.6772 58.7131 23.2005 58.6787 23.7188L58.6562 24.0518L58.9561 24.2002C62.2153 25.8158 64.4999 29.3772 64.5 33.5342C64.5 39.2382 60.2127 43.7988 55 43.7988H53.1309L53.9834 42.0215C55.1739 39.5388 53.5283 36.4736 50.7979 36.4736H49.8291L51.3896 31.4131C52.1344 28.997 50.476 26.4102 47.9912 26.4102H42.6768C41.0978 26.4102 39.7331 27.5059 39.2676 29.0684L35.0957 43.0781C35.0242 43.3182 34.9784 43.5594 34.9521 43.7988H14.6152C6.85363 43.7987 0.5 37.0142 0.5 28.5664C0.500023 20.1186 6.85364 13.3341 14.6152 13.334C16.3018 13.334 17.9191 13.6531 19.418 14.2383L19.8877 14.4219L20.0664 13.9502C23.0705 6.04061 30.2759 0.5 38.6543 0.5Z" fill="white" stroke="black"/>
<path d="M20.7705 61.4043L20.7773 61.4209L20.7852 61.4355C20.9451 61.737 21.0381 62.0907 21.0381 62.4717C21.0381 63.6371 20.1865 64.502 19.2305 64.502C18.2746 64.5017 17.4229 63.6369 17.4229 62.4717C17.4229 62.1383 17.4941 61.8256 17.6191 61.5508L17.6846 61.4199L17.6914 61.4043L19.2305 57.9492L20.7705 61.4043ZM34.6162 61.4043L34.623 61.4199L34.6885 61.5508C34.8135 61.8256 34.8848 62.1383 34.8848 62.4717C34.8847 63.637 34.0331 64.5018 33.0771 64.502C32.1211 64.502 31.2696 63.6371 31.2695 62.4717C31.2695 62.0907 31.3626 61.737 31.5225 61.4355L31.5303 61.4209L31.5371 61.4053L33.0762 57.9492L34.6162 61.4043ZM13.8467 53.124L13.8545 53.1406L13.8623 53.1553C14.0223 53.4567 14.1152 53.8104 14.1152 54.1914C14.1152 55.3568 13.2637 56.2217 12.3076 56.2217C11.3516 56.2216 10.5 55.3568 10.5 54.1914C10.5 53.8105 10.593 53.4567 10.7529 53.1553L10.7617 53.1406L10.7686 53.125L12.3076 49.6699L13.8467 53.124ZM27.6934 53.125L27.7002 53.1406L27.708 53.1553C27.8679 53.4567 27.9619 53.8105 27.9619 54.1914C27.9619 55.3567 27.1102 56.2214 26.1543 56.2217C25.1982 56.2217 24.3457 55.3568 24.3457 54.1914C24.3457 53.8103 24.4396 53.4568 24.5996 53.1553L24.6074 53.1396L24.6143 53.124L26.1533 49.6689L27.6934 53.125Z" fill="white" stroke="black"/>
</svg>
