<svg width="65" height="65" viewBox="0 0 65 65" fill="none" xmlns="http://www.w3.org/2000/svg">
<path d="M38.6543 0.5C49.714 0.500261 58.7305 10.0394 58.7305 21.8711C58.7305 22.3919 58.7131 22.9086 58.6787 23.4199L58.6562 23.7549L58.958 23.9023C62.2183 25.498 64.4998 29.0132 64.5 33.1123C64.5 38.7354 60.2184 43.2412 55 43.2412H14.6152C6.84788 43.2411 0.5 36.5394 0.5 28.207C0.500054 19.8747 6.84791 13.1729 14.6152 13.1729C16.3026 13.1729 17.9206 13.4884 19.4199 14.0664L19.8867 14.2461L20.0664 13.7793C23.0689 5.97346 30.2721 0.5 38.6543 0.5Z" fill="white" stroke="black"/>
<path d="M14.6172 61.4551L14.625 61.4707L14.6328 61.4854C14.792 61.7816 14.8847 62.1291 14.8848 62.5029C14.8848 63.6446 14.0389 64.502 13.0771 64.502C12.1154 64.5019 11.2695 63.6446 11.2695 62.5029C11.2696 62.1291 11.3623 61.7816 11.5215 61.4854L11.5293 61.4707L11.5371 61.4551L13.0771 58.041L14.6172 61.4551ZM28.4639 61.4541L28.4707 61.4707L28.4795 61.4854C28.6387 61.7816 28.7314 62.129 28.7314 62.5029C28.7314 63.6444 27.8854 64.5017 26.9238 64.502C25.9621 64.502 25.1152 63.6446 25.1152 62.5029C25.1153 62.1291 25.208 61.7816 25.3672 61.4854L25.376 61.4707L25.3828 61.4551L26.9229 58.04L28.4639 61.4541ZM41.9258 61.4551L41.9326 61.4707L41.9404 61.4854C42.0996 61.7816 42.1923 62.1291 42.1924 62.5029C42.1924 63.6446 41.3465 64.502 40.3848 64.502C39.4231 64.5019 38.5771 63.6445 38.5771 62.5029C38.5772 62.129 38.6698 61.7817 38.8291 61.4854L38.8379 61.4707L38.8447 61.4541L40.3848 58.041L41.9258 61.4551ZM21.541 52.4609L21.5479 52.4766L21.6123 52.6055C21.7368 52.8756 21.8076 53.1824 21.8076 53.5098C21.8076 54.6514 20.9618 55.5078 20 55.5078C19.0384 55.5076 18.1924 54.6513 18.1924 53.5098C18.1924 53.1358 18.2851 52.7885 18.4443 52.4922L18.4531 52.4766L18.46 52.4609L20 49.0469L21.541 52.4609ZM35.002 52.4609L35.0742 52.6055C35.1987 52.8756 35.2695 53.1825 35.2695 53.5098C35.2695 54.6514 34.4236 55.5078 33.4619 55.5078C32.5002 55.5078 31.6543 54.6514 31.6543 53.5098C31.6543 53.1824 31.7251 52.8756 31.8496 52.6055L31.9219 52.4609L33.4619 49.0479L35.002 52.4609ZM48.8486 52.4609L48.8555 52.4766L48.9199 52.6055C49.0444 52.8756 49.1152 53.1824 49.1152 53.5098C49.1152 54.6514 48.2694 55.5078 47.3076 55.5078C46.346 55.5076 45.5 54.6513 45.5 53.5098C45.5 53.1358 45.5928 52.7885 45.752 52.4922L45.7607 52.4766L45.7676 52.4609L47.3076 49.0469L48.8486 52.4609Z" fill="white" stroke="black"/>
</svg>
