<svg width="65" height="65" viewBox="0 0 65 65" fill="none" xmlns="http://www.w3.org/2000/svg">
<mask id="path-1-outside-1_3800_732" maskUnits="userSpaceOnUse" x="13.1685" y="32.0469" width="22" height="24" fill="black">
<rect fill="white" x="13.1685" y="32.0469" width="22" height="24"/>
<path fill-rule="evenodd" clip-rule="evenodd" d="M23.8022 33.8364C23.8022 33.4004 24.1557 33.0469 24.5918 33.0469C25.0278 33.0469 25.3813 33.4004 25.3813 33.8364V36.6879L26.7594 35.4629C27.0831 35.1752 27.582 35.2013 27.8737 35.5212C28.1655 35.8412 28.1397 36.3337 27.8161 36.6214L25.3813 38.7856V42.3215L28.6483 40.4594L29.285 37.5022C29.3757 37.0809 29.795 36.8118 30.2216 36.9013C30.6481 36.9908 30.9203 37.405 30.8296 37.8264L30.4885 39.4105L32.7997 38.0932C33.1749 37.8793 33.6558 38.0082 33.8738 38.381C34.0919 38.7538 33.9644 39.2294 33.5892 39.4433L31.0905 40.8675L32.8266 41.4244C33.2416 41.5575 33.4687 41.9973 33.334 42.4068C33.1992 42.8162 32.7536 43.0402 32.3386 42.9071L29.2503 41.9164L26.2299 43.638L29.4885 45.4953L32.3748 44.5695C32.7898 44.4364 33.2355 44.6604 33.3702 45.0698C33.505 45.4792 33.2778 45.919 32.8628 46.0522L31.3288 46.5442L33.624 47.8525C33.9992 48.0663 34.1267 48.5419 33.9086 48.9147C33.6906 49.2876 33.2097 49.4164 32.8344 49.2026L30.3199 47.7693L30.7051 49.5584C30.7958 49.9798 30.5236 50.394 30.0971 50.4835C29.6705 50.573 29.2512 50.3039 29.1605 49.8826L28.4796 46.7204L25.3813 44.9545V48.742L27.6582 50.7659C27.9818 51.0535 28.0076 51.5461 27.7158 51.866C27.424 52.1859 26.9251 52.2121 26.6015 51.9244L25.3813 50.8398V53.4592C25.3813 53.8953 25.0278 54.2488 24.5918 54.2488C24.1557 54.2488 23.8022 53.8953 23.8022 53.4592V50.626L22.4445 51.8329C22.1209 52.1205 21.622 52.0944 21.3302 51.7745C21.0384 51.4545 21.0643 50.962 21.3879 50.6743L23.8022 48.5282V45.0217L20.4845 46.9127L19.8536 49.8432C19.7628 50.2645 19.3435 50.5336 18.917 50.4441C18.4904 50.3546 18.2182 49.9404 18.3089 49.519L18.6443 47.9616L16.3491 49.2698C15.9739 49.4836 15.493 49.3548 15.275 48.982C15.0569 48.6091 15.1844 48.1335 15.5596 47.9197L18.0742 46.4864L16.312 45.9211C15.897 45.788 15.6698 45.3482 15.8046 44.9388C15.9393 44.5293 16.385 44.3053 16.8 44.4385L19.9144 45.4375L23.0716 43.638L19.7457 41.7422L16.8334 42.6764C16.4184 42.8095 15.9727 42.5855 15.8379 42.1761C15.7032 41.7667 15.9304 41.3269 16.3454 41.1938L17.9054 40.6933L15.5944 39.3761C15.2191 39.1622 15.0917 38.6866 15.3097 38.3138C15.5278 37.941 16.0087 37.8121 16.3839 38.026L18.8826 39.4502L18.5031 37.6875C18.4124 37.2661 18.6846 36.852 19.1111 36.7625C19.5377 36.673 19.957 36.942 20.0477 37.3634L20.7228 40.4991L23.8022 42.2543V38.5355L21.5458 36.5298C21.2222 36.2421 21.1964 35.7495 21.4882 35.4296C21.7799 35.1097 22.2788 35.0835 22.6024 35.3712L23.8022 36.4377V33.8364Z"/>
</mask>
<path fill-rule="evenodd" clip-rule="evenodd" d="M23.8022 33.8364C23.8022 33.4004 24.1557 33.0469 24.5918 33.0469C25.0278 33.0469 25.3813 33.4004 25.3813 33.8364V36.6879L26.7594 35.4629C27.0831 35.1752 27.582 35.2013 27.8737 35.5212C28.1655 35.8412 28.1397 36.3337 27.8161 36.6214L25.3813 38.7856V42.3215L28.6483 40.4594L29.285 37.5022C29.3757 37.0809 29.795 36.8118 30.2216 36.9013C30.6481 36.9908 30.9203 37.405 30.8296 37.8264L30.4885 39.4105L32.7997 38.0932C33.1749 37.8793 33.6558 38.0082 33.8738 38.381C34.0919 38.7538 33.9644 39.2294 33.5892 39.4433L31.0905 40.8675L32.8266 41.4244C33.2416 41.5575 33.4687 41.9973 33.334 42.4068C33.1992 42.8162 32.7536 43.0402 32.3386 42.9071L29.2503 41.9164L26.2299 43.638L29.4885 45.4953L32.3748 44.5695C32.7898 44.4364 33.2355 44.6604 33.3702 45.0698C33.505 45.4792 33.2778 45.919 32.8628 46.0522L31.3288 46.5442L33.624 47.8525C33.9992 48.0663 34.1267 48.5419 33.9086 48.9147C33.6906 49.2876 33.2097 49.4164 32.8344 49.2026L30.3199 47.7693L30.7051 49.5584C30.7958 49.9798 30.5236 50.394 30.0971 50.4835C29.6705 50.573 29.2512 50.3039 29.1605 49.8826L28.4796 46.7204L25.3813 44.9545V48.742L27.6582 50.7659C27.9818 51.0535 28.0076 51.5461 27.7158 51.866C27.424 52.1859 26.9251 52.2121 26.6015 51.9244L25.3813 50.8398V53.4592C25.3813 53.8953 25.0278 54.2488 24.5918 54.2488C24.1557 54.2488 23.8022 53.8953 23.8022 53.4592V50.626L22.4445 51.8329C22.1209 52.1205 21.622 52.0944 21.3302 51.7745C21.0384 51.4545 21.0643 50.962 21.3879 50.6743L23.8022 48.5282V45.0217L20.4845 46.9127L19.8536 49.8432C19.7628 50.2645 19.3435 50.5336 18.917 50.4441C18.4904 50.3546 18.2182 49.9404 18.3089 49.519L18.6443 47.9616L16.3491 49.2698C15.9739 49.4836 15.493 49.3548 15.275 48.982C15.0569 48.6091 15.1844 48.1335 15.5596 47.9197L18.0742 46.4864L16.312 45.9211C15.897 45.788 15.6698 45.3482 15.8046 44.9388C15.9393 44.5293 16.385 44.3053 16.8 44.4385L19.9144 45.4375L23.0716 43.638L19.7457 41.7422L16.8334 42.6764C16.4184 42.8095 15.9727 42.5855 15.8379 42.1761C15.7032 41.7667 15.9304 41.3269 16.3454 41.1938L17.9054 40.6933L15.5944 39.3761C15.2191 39.1622 15.0917 38.6866 15.3097 38.3138C15.5278 37.941 16.0087 37.8121 16.3839 38.026L18.8826 39.4502L18.5031 37.6875C18.4124 37.2661 18.6846 36.852 19.1111 36.7625C19.5377 36.673 19.957 36.942 20.0477 37.3634L20.7228 40.4991L23.8022 42.2543V38.5355L21.5458 36.5298C21.2222 36.2421 21.1964 35.7495 21.4882 35.4296C21.7799 35.1097 22.2788 35.0835 22.6024 35.3712L23.8022 36.4377V33.8364Z" fill="white"/>
<path d="M25.3813 36.6879H24.3813V38.9147L26.0457 37.4353L25.3813 36.6879ZM26.7594 35.4629L26.0951 34.7155L26.0951 34.7155L26.7594 35.4629ZM27.8161 36.6214L27.1517 35.874L27.1517 35.874L27.8161 36.6214ZM25.3813 38.7856L24.717 38.0382L24.3813 38.3366V38.7856H25.3813ZM25.3813 42.3215H24.3813V44.0425L25.8765 43.1903L25.3813 42.3215ZM28.6483 40.4594L29.1435 41.3282L29.5318 41.1068L29.6259 40.6699L28.6483 40.4594ZM29.285 37.5022L28.3074 37.2917L29.285 37.5022ZM30.8296 37.8264L29.852 37.6159L30.8296 37.8264ZM30.4885 39.4105L29.5109 39.2L29.04 41.3871L30.9837 40.2793L30.4885 39.4105ZM32.7997 38.0932L32.3045 37.2244V37.2244L32.7997 38.0932ZM33.8738 38.381L33.0106 38.8858V38.8858L33.8738 38.381ZM33.5892 39.4433L33.094 38.5745H33.094L33.5892 39.4433ZM31.0905 40.8675L30.5953 39.9987L28.6193 41.125L30.7851 41.8197L31.0905 40.8675ZM32.8266 41.4244L32.5211 42.3766V42.3766L32.8266 41.4244ZM33.334 42.4068L32.3841 42.0941V42.0941L33.334 42.4068ZM32.3386 42.9071L32.644 41.9549L32.644 41.9549L32.3386 42.9071ZM29.2503 41.9164L29.5557 40.9642L29.137 40.8299L28.7551 41.0476L29.2503 41.9164ZM26.2299 43.638L25.7347 42.7692L24.2105 43.638L25.7347 44.5068L26.2299 43.638ZM29.4885 45.4953L28.9934 46.3641L29.3753 46.5818L29.794 46.4475L29.4885 45.4953ZM32.3748 44.5695L32.6803 45.5217H32.6803L32.3748 44.5695ZM33.3702 45.0698L32.4203 45.3824V45.3824L33.3702 45.0698ZM32.8628 46.0522L33.1682 47.0044V47.0044L32.8628 46.0522ZM31.3288 46.5442L31.0233 45.592L28.8576 46.2867L30.8336 47.413L31.3288 46.5442ZM33.624 47.8525L33.1288 48.7212H33.1288L33.624 47.8525ZM33.9086 48.9147L34.7718 49.4196L34.7718 49.4196L33.9086 48.9147ZM32.8344 49.2026L32.3392 50.0713H32.3392L32.8344 49.2026ZM30.3199 47.7693L30.8151 46.9005L28.8714 45.7927L29.3423 47.9798L30.3199 47.7693ZM30.7051 49.5584L31.6827 49.348L30.7051 49.5584ZM30.0971 50.4835L29.8917 49.5048L29.8917 49.5048L30.0971 50.4835ZM29.1605 49.8826L28.1829 50.0931V50.0931L29.1605 49.8826ZM28.4796 46.7204L29.4572 46.5099L29.3632 46.073L28.9748 45.8516L28.4796 46.7204ZM25.3813 44.9545L25.8765 44.0857L24.3813 43.2334V44.9545H25.3813ZM25.3813 48.742H24.3813V49.1911L24.717 49.4894L25.3813 48.742ZM27.6582 50.7659L28.3225 50.0185H28.3225L27.6582 50.7659ZM27.7158 51.866L28.4547 52.5399L28.4547 52.5399L27.7158 51.866ZM26.6015 51.9244L27.2659 51.177H27.2659L26.6015 51.9244ZM25.3813 50.8398L26.0457 50.0924L24.3813 48.6129V50.8398H25.3813ZM23.8022 50.626H24.8022V48.3991L23.1379 49.8786L23.8022 50.626ZM22.4445 51.8329L21.7802 51.0855H21.7802L22.4445 51.8329ZM21.3302 51.7745L20.5914 52.4483L20.5914 52.4483L21.3302 51.7745ZM21.3879 50.6743L20.7235 49.9269H20.7235L21.3879 50.6743ZM23.8022 48.5282L24.4666 49.2756L24.8022 48.9773V48.5282H23.8022ZM23.8022 45.0217H24.8022V43.3007L23.307 44.1529L23.8022 45.0217ZM20.4845 46.9127L19.9893 46.0439L19.601 46.2653L19.5069 46.7022L20.4845 46.9127ZM19.8536 49.8432L18.876 49.6327L19.8536 49.8432ZM18.917 50.4441L18.7116 51.4227L18.7116 51.4227L18.917 50.4441ZM18.3089 49.519L17.3313 49.3086L18.3089 49.519ZM18.6443 47.9616L19.6219 48.1721L20.0928 45.985L18.1491 47.0928L18.6443 47.9616ZM16.3491 49.2698L16.8443 50.1386H16.8443L16.3491 49.2698ZM15.275 48.982L16.1382 48.4771L16.1382 48.4771L15.275 48.982ZM15.5596 47.9197L15.0644 47.0509H15.0644L15.5596 47.9197ZM18.0742 46.4864L18.5694 47.3552L20.5454 46.2289L18.3796 45.5342L18.0742 46.4864ZM16.312 45.9211L16.6174 44.9689H16.6174L16.312 45.9211ZM15.8046 44.9388L16.7544 45.2514L16.7544 45.2514L15.8046 44.9388ZM16.8 44.4385L16.4945 45.3907H16.4945L16.8 44.4385ZM19.9144 45.4375L19.609 46.3897L20.0277 46.524L20.4096 46.3063L19.9144 45.4375ZM23.0716 43.638L23.5668 44.5068L25.0911 43.638L23.5668 42.7692L23.0716 43.638ZM19.7457 41.7422L20.2408 40.8735L19.8589 40.6557L19.4402 40.79L19.7457 41.7422ZM16.8334 42.6764L16.5279 41.7242L16.5279 41.7242L16.8334 42.6764ZM15.8379 42.1761L16.7878 41.8635H16.7878L15.8379 42.1761ZM16.3454 41.1938L16.0399 40.2415L16.0399 40.2415L16.3454 41.1938ZM17.9054 40.6933L18.2109 41.6455L20.3766 40.9508L18.4006 39.8246L17.9054 40.6933ZM15.5944 39.3761L15.0992 40.2449H15.0992L15.5944 39.3761ZM15.3097 38.3138L16.173 38.8186L15.3097 38.3138ZM16.3839 38.026L15.8887 38.8948H15.8887L16.3839 38.026ZM18.8826 39.4502L18.3874 40.319L20.3311 41.4268L19.8602 39.2397L18.8826 39.4502ZM18.5031 37.6875L17.5255 37.898V37.898L18.5031 37.6875ZM19.1111 36.7625L18.9057 35.7838H18.9057L19.1111 36.7625ZM20.0477 37.3634L19.0701 37.5739V37.5739L20.0477 37.3634ZM20.7228 40.4991L19.7452 40.7095L19.8393 41.1465L20.2276 41.3678L20.7228 40.4991ZM23.8022 42.2543L23.307 43.123L24.8022 43.9753V42.2543H23.8022ZM23.8022 38.5355H24.8022V38.0864L24.4666 37.7881L23.8022 38.5355ZM21.5458 36.5298L22.2102 35.7824V35.7824L21.5458 36.5298ZM22.6024 35.3712L21.9381 36.1186L21.9381 36.1186L22.6024 35.3712ZM23.8022 36.4377L23.1379 37.1851L24.8022 38.6646V36.4377H23.8022ZM24.5918 33.0469V32.0469C23.6034 32.0469 22.8022 32.8481 22.8022 33.8364H23.8022H24.8022C24.8022 33.9527 24.708 34.0469 24.5918 34.0469V33.0469ZM25.3813 33.8364H26.3813C26.3813 32.8481 25.5801 32.0469 24.5918 32.0469V33.0469V34.0469C24.4756 34.0469 24.3813 33.9527 24.3813 33.8364H25.3813ZM25.3813 36.6879H26.3813V33.8364H25.3813H24.3813V36.6879H25.3813ZM26.7594 35.4629L26.0951 34.7155L24.717 35.9405L25.3813 36.6879L26.0457 37.4353L27.4238 36.2103L26.7594 35.4629ZM27.8737 35.5212L28.6126 34.8474C27.952 34.1231 26.8278 34.0642 26.0951 34.7155L26.7594 35.4629L27.4238 36.2103C27.3384 36.2862 27.2119 36.2796 27.1349 36.1951L27.8737 35.5212ZM27.8161 36.6214L28.4805 37.3688C29.2206 36.7109 29.2799 35.579 28.6126 34.8474L27.8737 35.5212L27.1349 36.1951C27.0511 36.1033 27.0588 35.9566 27.1517 35.874L27.8161 36.6214ZM25.3813 38.7856L26.0457 39.5331L28.4805 37.3688L27.8161 36.6214L27.1517 35.874L24.717 38.0382L25.3813 38.7856ZM25.3813 42.3215H26.3813V38.7856H25.3813H24.3813V42.3215H25.3813ZM28.6483 40.4594L28.1531 39.5906L24.8862 41.4527L25.3813 42.3215L25.8765 43.1903L29.1435 41.3282L28.6483 40.4594ZM28.6483 40.4594L29.6259 40.6699L30.2626 37.7127L29.285 37.5022L28.3074 37.2917L27.6707 40.2489L28.6483 40.4594ZM29.285 37.5022L30.2626 37.7127C30.2353 37.8394 30.118 37.9014 30.0162 37.88L30.2216 36.9013L30.4269 35.9226C29.4721 35.7223 28.5161 36.3224 28.3074 37.2917L29.285 37.5022ZM30.2216 36.9013L30.0162 37.88C29.9105 37.8578 29.8239 37.7467 29.852 37.6159L30.8296 37.8264L31.8072 38.0368C32.0168 37.0633 31.3857 36.1238 30.4269 35.9226L30.2216 36.9013ZM30.8296 37.8264L29.852 37.6159L29.5109 39.2L30.4885 39.4105L31.4661 39.621L31.8072 38.0368L30.8296 37.8264ZM32.7997 38.0932L32.3045 37.2244L29.9934 38.5417L30.4885 39.4105L30.9837 40.2793L33.2948 38.962L32.7997 38.0932ZM33.8738 38.381L34.7371 37.8762C34.2424 37.0304 33.1557 36.7392 32.3045 37.2244L32.7997 38.0932L33.2948 38.962C33.194 39.0195 33.0692 38.986 33.0106 38.8858L33.8738 38.381ZM33.5892 39.4433L34.0844 40.3121C34.9432 39.8226 35.2361 38.7295 34.7371 37.8762L33.8738 38.381L33.0106 38.8858C32.9476 38.7782 32.9857 38.6363 33.094 38.5745L33.5892 39.4433ZM31.0905 40.8675L31.5857 41.7363L34.0844 40.3121L33.5892 39.4433L33.094 38.5745L30.5953 39.9987L31.0905 40.8675ZM32.8266 41.4244L33.132 40.4722L31.3959 39.9153L31.0905 40.8675L30.7851 41.8197L32.5211 42.3766L32.8266 41.4244ZM33.334 42.4068L34.2839 42.7194C34.5955 41.7726 34.0656 40.7717 33.132 40.4722L32.8266 41.4244L32.5211 42.3766C32.4175 42.3434 32.342 42.2221 32.3841 42.0941L33.334 42.4068ZM32.3386 42.9071L32.0331 43.8593C32.9614 44.157 33.9742 43.6604 34.2839 42.7194L33.334 42.4068L32.3841 42.0941C32.4243 41.972 32.5458 41.9233 32.644 41.9549L32.3386 42.9071ZM29.2503 41.9164L28.9448 42.8686L32.0331 43.8593L32.3386 42.9071L32.644 41.9549L29.5557 40.9642L29.2503 41.9164ZM26.2299 43.638L26.7251 44.5068L29.7455 42.7852L29.2503 41.9164L28.7551 41.0476L25.7347 42.7692L26.2299 43.638ZM29.4885 45.4953L29.9837 44.6265L26.7251 42.7692L26.2299 43.638L25.7347 44.5068L28.9934 46.3641L29.4885 45.4953ZM32.3748 44.5695L32.0694 43.6173L29.1831 44.5431L29.4885 45.4953L29.794 46.4475L32.6803 45.5217L32.3748 44.5695ZM33.3702 45.0698L34.3201 44.7572C34.0104 43.8162 32.9976 43.3195 32.0694 43.6173L32.3748 44.5695L32.6803 45.5217C32.582 45.5532 32.4606 45.5046 32.4203 45.3824L33.3702 45.0698ZM32.8628 46.0522L33.1682 47.0044C34.1019 46.7049 34.6317 45.704 34.3201 44.7572L33.3702 45.0698L32.4203 45.3824C32.3782 45.2544 32.4537 45.1332 32.5573 45.1L32.8628 46.0522ZM31.3288 46.5442L31.6342 47.4964L33.1682 47.0044L32.8628 46.0522L32.5573 45.1L31.0233 45.592L31.3288 46.5442ZM33.624 47.8525L34.1192 46.9837L31.824 45.6754L31.3288 46.5442L30.8336 47.413L33.1288 48.7212L33.624 47.8525ZM33.9086 48.9147L34.7718 49.4196C35.2709 48.5663 34.978 47.4732 34.1192 46.9837L33.624 47.8525L33.1288 48.7212C33.0204 48.6595 32.9824 48.5176 33.0454 48.4099L33.9086 48.9147ZM32.8344 49.2026L32.3392 50.0713C33.1905 50.5565 34.2772 50.2654 34.7718 49.4196L33.9086 48.9147L33.0454 48.4099C33.104 48.3097 33.2288 48.2763 33.3296 48.3338L32.8344 49.2026ZM30.3199 47.7693L29.8247 48.6381L32.3392 50.0713L32.8344 49.2026L33.3296 48.3338L30.8151 46.9005L30.3199 47.7693ZM30.7051 49.5584L31.6827 49.348L31.2975 47.5588L30.3199 47.7693L29.3423 47.9798L29.7275 49.7689L30.7051 49.5584ZM30.0971 50.4835L30.3024 51.4622C31.2612 51.261 31.8923 50.3215 31.6827 49.348L30.7051 49.5584L29.7275 49.7689C29.6993 49.6381 29.786 49.527 29.8917 49.5048L30.0971 50.4835ZM29.1605 49.8826L28.1829 50.0931C28.3916 51.0624 29.3475 51.6625 30.3024 51.4622L30.0971 50.4835L29.8917 49.5048C29.9935 49.4834 30.1108 49.5455 30.1381 49.6721L29.1605 49.8826ZM28.4796 46.7204L27.502 46.9309L28.1829 50.0931L29.1605 49.8826L30.1381 49.6721L29.4572 46.5099L28.4796 46.7204ZM25.3813 44.9545L24.8862 45.8232L27.9845 47.5892L28.4796 46.7204L28.9748 45.8516L25.8765 44.0857L25.3813 44.9545ZM25.3813 48.742H26.3813V44.9545H25.3813H24.3813V48.742H25.3813ZM27.6582 50.7659L28.3225 50.0185L26.0457 47.9946L25.3813 48.742L24.717 49.4894L26.9938 51.5133L27.6582 50.7659ZM27.7158 51.866L28.4547 52.5399C29.122 51.8082 29.0627 50.6764 28.3225 50.0185L27.6582 50.7659L26.9938 51.5133C26.9009 51.4307 26.8932 51.284 26.977 51.1922L27.7158 51.866ZM26.6015 51.9244L25.9372 52.6718C26.6698 53.3231 27.7941 53.2642 28.4547 52.5399L27.7158 51.866L26.977 51.1921C27.054 51.1077 27.1805 51.1011 27.2659 51.177L26.6015 51.9244ZM25.3813 50.8398L24.717 51.5872L25.9372 52.6718L26.6015 51.9244L27.2659 51.177L26.0457 50.0924L25.3813 50.8398ZM25.3813 53.4592H26.3813V50.8398H25.3813H24.3813V53.4592H25.3813ZM24.5918 54.2488V55.2488C25.5801 55.2488 26.3813 54.4476 26.3813 53.4592H25.3813H24.3813C24.3813 53.343 24.4756 53.2488 24.5918 53.2488V54.2488ZM23.8022 53.4592H22.8022C22.8022 54.4476 23.6034 55.2488 24.5918 55.2488V54.2488V53.2488C24.708 53.2488 24.8022 53.343 24.8022 53.4592H23.8022ZM23.8022 50.626H22.8022V53.4592H23.8022H24.8022V50.626H23.8022ZM22.4445 51.8329L23.1089 52.5803L24.4666 51.3734L23.8022 50.626L23.1379 49.8786L21.7802 51.0855L22.4445 51.8329ZM21.3302 51.7745L20.5914 52.4483C21.252 53.1726 22.3762 53.2315 23.1089 52.5803L22.4445 51.8329L21.7802 51.0855C21.8656 51.0095 21.9921 51.0161 22.0691 51.1006L21.3302 51.7745ZM21.3879 50.6743L20.7235 49.9269C19.9834 50.5848 19.9241 51.7167 20.5914 52.4483L21.3302 51.7745L22.0691 51.1006C22.1528 51.1924 22.1451 51.3391 22.0523 51.4217L21.3879 50.6743ZM23.8022 48.5282L23.1379 47.7808L20.7235 49.9269L21.3879 50.6743L22.0523 51.4217L24.4666 49.2756L23.8022 48.5282ZM23.8022 45.0217H22.8022V48.5282H23.8022H24.8022V45.0217H23.8022ZM20.4845 46.9127L20.9797 47.7815L24.2974 45.8905L23.8022 45.0217L23.307 44.1529L19.9893 46.0439L20.4845 46.9127ZM19.8536 49.8432L20.8312 50.0536L21.4621 47.1232L20.4845 46.9127L19.5069 46.7022L18.876 49.6327L19.8536 49.8432ZM18.917 50.4441L18.7116 51.4227C19.6665 51.6231 20.6224 51.023 20.8312 50.0536L19.8536 49.8432L18.876 49.6327C18.9032 49.506 19.0205 49.444 19.1223 49.4654L18.917 50.4441ZM18.3089 49.519L17.3313 49.3086C17.1217 50.2821 17.7529 51.2216 18.7116 51.4227L18.917 50.4441L19.1223 49.4654C19.228 49.4875 19.3147 49.5987 19.2865 49.7295L18.3089 49.519ZM18.6443 47.9616L17.6667 47.7511L17.3313 49.3086L18.3089 49.519L19.2865 49.7295L19.6219 48.1721L18.6443 47.9616ZM16.3491 49.2698L16.8443 50.1386L19.1394 48.8304L18.6443 47.9616L18.1491 47.0928L15.854 48.401L16.3491 49.2698ZM15.275 48.982L14.4117 49.4868C14.9064 50.3326 15.9931 50.6238 16.8443 50.1386L16.3491 49.2698L15.854 48.401C15.9548 48.3435 16.0796 48.377 16.1382 48.4771L15.275 48.982ZM15.5596 47.9197L15.0644 47.0509C14.2056 47.5404 13.9127 48.6335 14.4117 49.4868L15.275 48.982L16.1382 48.4771C16.2012 48.5848 16.1631 48.7267 16.0548 48.7885L15.5596 47.9197ZM18.0742 46.4864L17.579 45.6176L15.0644 47.0509L15.5596 47.9197L16.0548 48.7885L18.5694 47.3552L18.0742 46.4864ZM16.312 45.9211L16.0066 46.8733L17.7688 47.4386L18.0742 46.4864L18.3796 45.5342L16.6174 44.9689L16.312 45.9211ZM15.8046 44.9388L14.8547 44.6261C14.5431 45.573 15.0729 46.5739 16.0066 46.8733L16.312 45.9211L16.6174 44.9689C16.7211 45.0022 16.7966 45.1234 16.7544 45.2514L15.8046 44.9388ZM16.8 44.4385L17.1054 43.4862C16.1772 43.1885 15.1644 43.6851 14.8547 44.6261L15.8046 44.9388L16.7544 45.2514C16.7142 45.3735 16.5928 45.4222 16.4945 45.3907L16.8 44.4385ZM19.9144 45.4375L20.2199 44.4853L17.1054 43.4862L16.8 44.4385L16.4945 45.3907L19.609 46.3897L19.9144 45.4375ZM23.0716 43.638L22.5764 42.7692L19.4193 44.5687L19.9144 45.4375L20.4096 46.3063L23.5668 44.5068L23.0716 43.638ZM19.7457 41.7422L19.2505 42.611L22.5764 44.5068L23.0716 43.638L23.5668 42.7692L20.2408 40.8735L19.7457 41.7422ZM16.8334 42.6764L17.1388 43.6286L20.0511 42.6944L19.7457 41.7422L19.4402 40.79L16.5279 41.7242L16.8334 42.6764ZM15.8379 42.1761L14.8881 42.4887C15.1978 43.4297 16.2106 43.9264 17.1388 43.6286L16.8334 42.6764L16.5279 41.7242C16.6261 41.6927 16.7476 41.7413 16.7878 41.8635L15.8379 42.1761ZM16.3454 41.1938L16.0399 40.2415C15.1063 40.541 14.5764 41.5419 14.8881 42.4887L15.8379 42.1761L16.7878 41.8635C16.8299 41.9915 16.7544 42.1127 16.6508 42.146L16.3454 41.1938ZM17.9054 40.6933L17.6 39.7411L16.0399 40.2415L16.3454 41.1938L16.6508 42.146L18.2109 41.6455L17.9054 40.6933ZM15.5944 39.3761L15.0992 40.2449L17.4102 41.5621L17.9054 40.6933L18.4006 39.8246L16.0896 38.5073L15.5944 39.3761ZM15.3097 38.3138L14.4465 37.809C13.9475 38.6623 14.2404 39.7554 15.0992 40.2449L15.5944 39.3761L16.0896 38.5073C16.1979 38.5691 16.2359 38.7109 16.173 38.8186L15.3097 38.3138ZM16.3839 38.026L16.8791 37.1572C16.0278 36.672 14.9412 36.9631 14.4465 37.809L15.3097 38.3138L16.173 38.8186C16.1144 38.9188 15.9896 38.9522 15.8887 38.8948L16.3839 38.026ZM18.8826 39.4502L19.3778 38.5814L16.8791 37.1572L16.3839 38.026L15.8887 38.8948L18.3874 40.319L18.8826 39.4502ZM18.5031 37.6875L17.5255 37.898L17.905 39.6606L18.8826 39.4502L19.8602 39.2397L19.4807 37.477L18.5031 37.6875ZM19.1111 36.7625L18.9057 35.7838C17.947 35.985 17.3159 36.9245 17.5255 37.898L18.5031 37.6875L19.4807 37.477C19.5088 37.6078 19.4221 37.719 19.3165 37.7412L19.1111 36.7625ZM20.0477 37.3634L21.0253 37.1529C20.8166 36.1835 19.8606 35.5834 18.9057 35.7838L19.1111 36.7625L19.3165 37.7412C19.2147 37.7625 19.0974 37.7005 19.0701 37.5739L20.0477 37.3634ZM20.7228 40.4991L21.7004 40.2886L21.0253 37.1529L20.0477 37.3634L19.0701 37.5739L19.7452 40.7095L20.7228 40.4991ZM23.8022 42.2543L24.2974 41.3855L21.218 39.6303L20.7228 40.4991L20.2276 41.3678L23.307 43.123L23.8022 42.2543ZM23.8022 38.5355H22.8022V42.2543H23.8022H24.8022V38.5355H23.8022ZM21.5458 36.5298L20.8814 37.2772L23.1379 39.2829L23.8022 38.5355L24.4666 37.7881L22.2102 35.7824L21.5458 36.5298ZM21.4882 35.4296L20.7493 34.7557C20.082 35.4874 20.1413 36.6192 20.8814 37.2772L21.5458 36.5298L22.2102 35.7824C22.3031 35.8649 22.3108 36.0117 22.227 36.1035L21.4882 35.4296ZM22.6024 35.3712L23.2668 34.6238C22.5341 33.9725 21.4099 34.0314 20.7493 34.7557L21.4882 35.4296L22.227 36.1035C22.15 36.1879 22.0235 36.1946 21.9381 36.1186L22.6024 35.3712ZM23.8022 36.4377L24.4666 35.6903L23.2668 34.6238L22.6024 35.3712L21.9381 36.1186L23.1379 37.1851L23.8022 36.4377ZM23.8022 33.8364H22.8022V36.4377H23.8022H24.8022V33.8364H23.8022Z" fill="black" mask="url(#path-1-outside-1_3800_732)"/>
<mask id="path-3-inside-2_3800_732" fill="white">
<path fill-rule="evenodd" clip-rule="evenodd" d="M35.0875 47.1815C34.9503 47.0415 34.7914 46.9179 34.6121 46.8161L34.5382 46.7741C35.0177 46.2257 35.2106 45.4469 34.9614 44.6927C34.8315 44.2995 34.6006 43.9714 34.3081 43.725C34.5829 43.4824 34.7996 43.1659 34.9239 42.7896C35.192 41.9781 34.9482 41.1381 34.3865 40.5873L34.5761 40.4797C35.617 39.8886 35.9718 38.5647 35.3657 37.5323C34.7673 36.513 33.4567 36.1619 32.4289 36.7455L32.3119 36.8119C32.0786 36.0983 31.4752 35.532 30.6977 35.3695C30.2925 35.2848 29.886 35.3193 29.5184 35.4512C29.453 35.0555 29.2755 34.6733 28.9835 34.3543C28.4035 33.7208 27.5295 33.51 26.7554 33.7425V33.5281C26.7554 32.333 25.7866 31.3642 24.5915 31.3642C23.3964 31.3642 22.4276 32.333 22.4276 33.5281V33.6013C21.7023 33.4513 20.9185 33.6762 20.3842 34.2597C20.1009 34.5692 19.9254 34.9383 19.8555 35.3214C19.4784 35.1786 19.0584 35.1388 18.6399 35.2263C17.8126 35.3992 17.1824 36.0292 16.9854 36.8075L16.7541 36.6762C15.7263 36.0926 14.4157 36.4437 13.8174 37.463C13.2113 38.4953 13.566 39.8193 14.607 40.4103L14.6844 40.4543C14.1947 41.0035 13.9955 41.7901 14.2471 42.5517C14.3808 42.9564 14.6214 43.292 14.9262 43.5408C14.6051 43.792 14.3512 44.1376 14.2125 44.5575C13.9419 45.3765 14.1927 46.2245 14.7656 46.7749L14.571 46.8854C14.5308 46.9083 14.4916 46.9322 14.4534 46.9571C8.53656 45.8349 4.0625 40.6365 4.0625 34.393C4.0625 27.3302 9.78809 21.6046 16.851 21.6046C18.3824 21.6046 19.851 21.8738 21.212 22.3674C23.8971 15.7995 30.3505 11.1719 37.8846 11.1719C47.8284 11.1719 55.8894 19.2329 55.8894 29.1767C55.8894 29.6147 55.8738 30.0491 55.843 30.4793C58.85 31.8639 60.9375 34.9039 60.9375 38.4315C60.9375 43.264 57.02 47.1815 52.1875 47.1815H35.0875Z"/>
</mask>
<path fill-rule="evenodd" clip-rule="evenodd" d="M35.0875 47.1815C34.9503 47.0415 34.7914 46.9179 34.6121 46.8161L34.5382 46.7741C35.0177 46.2257 35.2106 45.4469 34.9614 44.6927C34.8315 44.2995 34.6006 43.9714 34.3081 43.725C34.5829 43.4824 34.7996 43.1659 34.9239 42.7896C35.192 41.9781 34.9482 41.1381 34.3865 40.5873L34.5761 40.4797C35.617 39.8886 35.9718 38.5647 35.3657 37.5323C34.7673 36.513 33.4567 36.1619 32.4289 36.7455L32.3119 36.8119C32.0786 36.0983 31.4752 35.532 30.6977 35.3695C30.2925 35.2848 29.886 35.3193 29.5184 35.4512C29.453 35.0555 29.2755 34.6733 28.9835 34.3543C28.4035 33.7208 27.5295 33.51 26.7554 33.7425V33.5281C26.7554 32.333 25.7866 31.3642 24.5915 31.3642C23.3964 31.3642 22.4276 32.333 22.4276 33.5281V33.6013C21.7023 33.4513 20.9185 33.6762 20.3842 34.2597C20.1009 34.5692 19.9254 34.9383 19.8555 35.3214C19.4784 35.1786 19.0584 35.1388 18.6399 35.2263C17.8126 35.3992 17.1824 36.0292 16.9854 36.8075L16.7541 36.6762C15.7263 36.0926 14.4157 36.4437 13.8174 37.463C13.2113 38.4953 13.566 39.8193 14.607 40.4103L14.6844 40.4543C14.1947 41.0035 13.9955 41.7901 14.2471 42.5517C14.3808 42.9564 14.6214 43.292 14.9262 43.5408C14.6051 43.792 14.3512 44.1376 14.2125 44.5575C13.9419 45.3765 14.1927 46.2245 14.7656 46.7749L14.571 46.8854C14.5308 46.9083 14.4916 46.9322 14.4534 46.9571C8.53656 45.8349 4.0625 40.6365 4.0625 34.393C4.0625 27.3302 9.78809 21.6046 16.851 21.6046C18.3824 21.6046 19.851 21.8738 21.212 22.3674C23.8971 15.7995 30.3505 11.1719 37.8846 11.1719C47.8284 11.1719 55.8894 19.2329 55.8894 29.1767C55.8894 29.6147 55.8738 30.0491 55.843 30.4793C58.85 31.8639 60.9375 34.9039 60.9375 38.4315C60.9375 43.264 57.02 47.1815 52.1875 47.1815H35.0875Z" fill="white"/>
<path d="M35.0875 47.1815L34.3731 47.8812L34.6672 48.1815H35.0875V47.1815ZM34.6121 46.8161L35.1059 45.9465L35.1059 45.9465L34.6121 46.8161ZM34.5382 46.7741L33.7854 46.1159L32.9786 47.0386L34.0444 47.6437L34.5382 46.7741ZM34.9614 44.6927L34.0119 45.0064L34.9614 44.6927ZM34.3081 43.725L33.6463 42.9753L32.7771 43.7426L33.6638 44.4897L34.3081 43.725ZM34.9239 42.7896L33.9744 42.4759L34.9239 42.7896ZM34.3865 40.5873L33.8927 39.7177L32.7392 40.3727L33.6864 41.3014L34.3865 40.5873ZM34.5761 40.4797L34.0823 39.6101L34.0823 39.6101L34.5761 40.4797ZM35.3657 37.5323L34.5033 38.0386L34.5033 38.0386L35.3657 37.5323ZM32.4289 36.7455L31.9352 35.8759L31.9352 35.8759L32.4289 36.7455ZM32.3119 36.8119L31.3614 37.1227L31.7417 38.2857L32.8057 37.6815L32.3119 36.8119ZM30.6977 35.3695L30.4931 36.3483H30.4931L30.6977 35.3695ZM29.5184 35.4512L28.5317 35.6143L28.7273 36.7974L29.856 36.3925L29.5184 35.4512ZM28.9835 34.3543L28.2459 35.0295L28.2459 35.0295L28.9835 34.3543ZM26.7554 33.7425H25.7554V35.087L27.0431 34.7003L26.7554 33.7425ZM22.4276 33.6013L22.2252 34.5806L23.4276 34.8292V33.6013H22.4276ZM20.3842 34.2597L21.1218 34.935H21.1218L20.3842 34.2597ZM19.8555 35.3214L19.5012 36.2565L20.6237 36.6818L20.8392 35.501L19.8555 35.3214ZM18.6399 35.2263L18.8445 36.2051H18.8445L18.6399 35.2263ZM16.9854 36.8075L16.4917 37.6771L17.6328 38.325L17.9548 37.0529L16.9854 36.8075ZM16.7541 36.6762L16.2604 37.5458L16.2604 37.5458L16.7541 36.6762ZM13.8174 37.463L12.955 36.9567L13.8174 37.463ZM14.607 40.4103L14.1132 41.2799H14.1132L14.607 40.4103ZM14.6844 40.4543L15.4308 41.1199L16.2547 40.196L15.1782 39.5847L14.6844 40.4543ZM14.2471 42.5517L15.1966 42.238V42.238L14.2471 42.5517ZM14.9262 43.5408L15.5425 44.3283L16.5278 43.5572L15.5585 42.7661L14.9262 43.5408ZM14.2125 44.5575L15.1621 44.8712L14.2125 44.5575ZM14.7656 46.7749L15.2593 47.6445L16.425 46.9827L15.4584 46.0539L14.7656 46.7749ZM14.571 46.8854L14.0772 46.0158L14.0772 46.0159L14.571 46.8854ZM14.4534 46.9571L14.2671 47.9396L14.6634 48.0148L15.001 47.7939L14.4534 46.9571ZM21.212 22.3674L20.871 23.3075L21.774 23.635L22.1376 22.7458L21.212 22.3674ZM55.843 30.4793L54.8456 30.408L54.7962 31.0983L55.4248 31.3877L55.843 30.4793ZM35.0875 47.1815L35.8019 46.4818C35.6 46.2756 35.367 46.0947 35.1059 45.9465L34.6121 46.8161L34.1183 47.6857C34.2159 47.7411 34.3007 47.8073 34.3731 47.8812L35.0875 47.1815ZM34.6121 46.8161L35.1059 45.9465L35.0319 45.9045L34.5382 46.7741L34.0444 47.6437L34.1184 47.6857L34.6121 46.8161ZM34.5382 46.7741L35.291 47.4323C35.9906 46.6322 36.2771 45.4873 35.911 44.379L34.9614 44.6927L34.0119 45.0064C34.1442 45.4066 34.0447 45.8193 33.7854 46.1159L34.5382 46.7741ZM34.9614 44.6927L35.911 44.379C35.7213 43.8049 35.3823 43.3224 34.9524 42.9602L34.3081 43.725L33.6638 44.4897C33.819 44.6205 33.9418 44.794 34.0119 45.0064L34.9614 44.6927ZM34.3081 43.725L34.9699 44.4747C35.3738 44.1181 35.692 43.6524 35.8734 43.1033L34.9239 42.7896L33.9744 42.4759C33.9072 42.6793 33.7919 42.8468 33.6463 42.9753L34.3081 43.725ZM34.9239 42.7896L35.8734 43.1033C36.2677 41.9101 35.9056 40.6763 35.0866 39.8733L34.3865 40.5873L33.6864 41.3014C33.9909 41.5999 34.1164 42.0461 33.9744 42.4759L34.9239 42.7896ZM34.3865 40.5873L34.8803 41.4569L35.0698 41.3493L34.5761 40.4797L34.0823 39.6101L33.8927 39.7177L34.3865 40.5873ZM34.5761 40.4797L35.0698 41.3493C36.596 40.4827 37.1166 38.5395 36.2281 37.026L35.3657 37.5323L34.5033 38.0386C34.8269 38.5898 34.6381 39.2945 34.0823 39.6101L34.5761 40.4797ZM35.3657 37.5323L36.2281 37.026C35.353 35.5354 33.4384 35.0224 31.9352 35.8759L32.4289 36.7455L32.9227 37.6151C33.4751 37.3014 34.1817 37.4907 34.5033 38.0386L35.3657 37.5323ZM32.4289 36.7455L31.9352 35.8759L31.8181 35.9424L32.3119 36.8119L32.8057 37.6815L32.9227 37.6151L32.4289 36.7455ZM32.3119 36.8119L33.2624 36.5012C32.9206 35.4556 32.0384 34.6281 30.9023 34.3906L30.6977 35.3695L30.4931 36.3483C30.912 36.4359 31.2366 36.7409 31.3614 37.1227L32.3119 36.8119ZM30.6977 35.3695L30.9023 34.3906C30.3109 34.267 29.7168 34.3176 29.1807 34.5099L29.5184 35.4512L29.856 36.3925C30.0551 36.3211 30.2741 36.3025 30.4931 36.3483L30.6977 35.3695ZM29.5184 35.4512L30.505 35.2881C30.4088 34.7064 30.1475 34.1448 29.721 33.679L28.9835 34.3543L28.2459 35.0295C28.4035 35.2017 28.4971 35.4046 28.5317 35.6143L29.5184 35.4512ZM28.9835 34.3543L29.721 33.679C28.8717 32.7513 27.5948 32.4463 26.4678 32.7848L26.7554 33.7425L27.0431 34.7003C27.4642 34.5738 27.9354 34.6903 28.2459 35.0295L28.9835 34.3543ZM26.7554 33.7425H27.7554V33.5281H26.7554H25.7554V33.7425H26.7554ZM26.7554 33.5281H27.7554C27.7554 31.7807 26.3389 30.3642 24.5915 30.3642V31.3642V32.3642C25.2343 32.3642 25.7554 32.8853 25.7554 33.5281H26.7554ZM24.5915 31.3642V30.3642C22.8442 30.3642 21.4276 31.7807 21.4276 33.5281H22.4276H23.4276C23.4276 32.8853 23.9487 32.3642 24.5915 32.3642V31.3642ZM22.4276 33.5281H21.4276V33.6013H22.4276H23.4276V33.5281H22.4276ZM22.4276 33.6013L22.6301 32.622C21.5748 32.4038 20.4291 32.7299 19.6467 33.5844L20.3842 34.2597L21.1218 34.935C21.4079 34.6225 21.8297 34.4988 22.2252 34.5806L22.4276 33.6013ZM20.3842 34.2597L19.6467 33.5844C19.2329 34.0364 18.9746 34.5785 18.8717 35.1418L19.8555 35.3214L20.8392 35.501C20.8762 35.2981 20.9688 35.1021 21.1218 34.935L20.3842 34.2597ZM19.8555 35.3214L20.2097 34.3863C19.6599 34.178 19.0462 34.1197 18.4352 34.2474L18.6399 35.2263L18.8445 36.2051C19.0706 36.1578 19.2969 36.1791 19.5012 36.2565L19.8555 35.3214ZM18.6399 35.2263L18.4352 34.2474C17.2268 34.5001 16.305 35.4203 16.016 36.5621L16.9854 36.8075L17.9548 37.0529C18.0598 36.6381 18.3984 36.2984 18.8445 36.2051L18.6399 35.2263ZM16.9854 36.8075L17.4792 35.9379L17.2479 35.8066L16.7541 36.6762L16.2604 37.5458L16.4917 37.6771L16.9854 36.8075ZM16.7541 36.6762L17.2479 35.8066C15.7447 34.9531 13.8301 35.466 12.955 36.9567L13.8174 37.463L14.6797 37.9692C15.0013 37.4214 15.7079 37.2321 16.2604 37.5458L16.7541 36.6762ZM13.8174 37.463L12.955 36.9567C12.0665 38.4702 12.5871 40.4134 14.1132 41.2799L14.607 40.4103L15.1008 39.5407C14.545 39.2251 14.3561 38.5204 14.6797 37.9692L13.8174 37.463ZM14.607 40.4103L14.1132 41.2799L14.1907 41.3239L14.6844 40.4543L15.1782 39.5847L15.1008 39.5407L14.607 40.4103ZM14.6844 40.4543L13.9381 39.7887C13.2236 40.5899 12.9278 41.7462 13.2976 42.8654L14.2471 42.5517L15.1966 42.238C15.0631 41.834 15.1657 41.4171 15.4308 41.1199L14.6844 40.4543ZM14.2471 42.5517L13.2976 42.8654C13.4928 43.4563 13.8462 43.9501 14.2938 44.3155L14.9262 43.5408L15.5585 42.7661C15.3966 42.634 15.2688 42.4564 15.1966 42.238L14.2471 42.5517ZM14.9262 43.5408L14.3099 42.7532C13.8385 43.1221 13.4656 43.6305 13.263 44.2438L14.2125 44.5575L15.1621 44.8712C15.2369 44.6447 15.3717 44.4619 15.5425 44.3283L14.9262 43.5408ZM14.2125 44.5575L13.263 44.2438C12.8651 45.4481 13.2376 46.6935 14.0727 47.496L14.7656 46.7749L15.4584 46.0539C15.1479 45.7555 15.0188 45.3049 15.1621 44.8712L14.2125 44.5575ZM14.7656 46.7749L14.2718 45.9053L14.0772 46.0158L14.571 46.8854L15.0647 47.755L15.2593 47.6445L14.7656 46.7749ZM14.571 46.8854L14.0772 46.0159C14.0187 46.049 13.9616 46.0839 13.9059 46.1203L14.4534 46.9571L15.001 47.7939C15.0215 47.7805 15.0428 47.7675 15.0647 47.755L14.571 46.8854ZM14.4534 46.9571L14.6398 45.9747C9.18614 44.9403 5.0625 40.1471 5.0625 34.393H4.0625H3.0625C3.0625 41.1258 7.88698 46.7295 14.2671 47.9396L14.4534 46.9571ZM4.0625 34.393H5.0625C5.0625 27.8824 10.3404 22.6046 16.851 22.6046V21.6046V20.6046C9.2358 20.6046 3.0625 26.7779 3.0625 34.393H4.0625ZM16.851 21.6046V22.6046C18.2645 22.6046 19.6177 22.8529 20.871 23.3075L21.212 22.3674L21.5529 21.4273C20.0842 20.8946 18.5004 20.6046 16.851 20.6046V21.6046ZM21.212 22.3674L22.1376 22.7458C24.6744 16.5408 30.7705 12.1719 37.8846 12.1719V11.1719V10.1719C29.9304 10.1719 23.1199 15.0582 20.2863 21.989L21.212 22.3674ZM37.8846 11.1719V12.1719C47.2761 12.1719 54.8894 19.7852 54.8894 29.1767H55.8894H56.8894C56.8894 18.6806 48.3807 10.1719 37.8846 10.1719V11.1719ZM55.8894 29.1767H54.8894C54.8894 29.5909 54.8746 30.0015 54.8456 30.408L55.843 30.4793L56.8405 30.5507C56.8729 30.0967 56.8894 29.6386 56.8894 29.1767H55.8894ZM55.843 30.4793L55.4248 31.3877C58.0904 32.6151 59.9375 35.3086 59.9375 38.4315H60.9375H61.9375C61.9375 34.4993 59.6097 31.1128 56.2613 29.571L55.843 30.4793ZM60.9375 38.4315H59.9375C59.9375 42.7117 56.4677 46.1815 52.1875 46.1815V47.1815V48.1815C57.5723 48.1815 61.9375 43.8163 61.9375 38.4315H60.9375ZM52.1875 47.1815V46.1815H35.0875V47.1815V48.1815H52.1875V47.1815Z" fill="black" mask="url(#path-3-inside-2_3800_732)"/>
</svg>
