<svg width="67" height="67" viewBox="0 0 67 67" fill="none" xmlns="http://www.w3.org/2000/svg">
<path d="M33.5 59.4814C34.5155 59.4814 35.4028 60.258 35.457 61.3047L35.6084 64.2363C35.6702 65.4407 34.7404 66.5 33.5 66.5C32.2596 66.5 31.3298 65.4407 31.3916 64.2363L31.543 61.3047C31.5972 60.258 32.4845 59.4814 33.5 59.4814ZM17.9004 56.6016C18.4717 55.7236 19.6266 55.4951 20.5059 56.0039C21.3835 56.5118 21.767 57.6281 21.29 58.5625L19.958 61.1719C19.4078 62.2495 18.066 62.7006 16.9902 62.0781C15.9131 61.4545 15.6441 60.0688 16.3027 59.0566L17.9004 56.6016ZM46.4941 56.0039C47.3734 55.4951 48.5283 55.7236 49.0996 56.6016L50.6973 59.0566C51.3559 60.0688 51.0869 61.4545 50.0098 62.0781C48.934 62.7006 47.5922 62.2495 47.042 61.1719L45.71 58.5625C45.233 57.6281 45.6165 56.5118 46.4941 56.0039ZM8.4375 45.71C9.37186 45.233 10.4882 45.6165 10.9961 46.4941C11.5049 47.3734 11.2763 48.5283 10.3984 49.0996L7.94336 50.6973C6.93122 51.3559 5.54551 51.0869 4.92188 50.0098C4.29937 48.934 4.75052 47.5922 5.82812 47.042L8.4375 45.71ZM56.0039 46.4941C56.5118 45.6165 57.6281 45.233 58.5625 45.71L61.1719 47.042C62.2495 47.5922 62.7006 48.934 62.0781 50.0098C61.4545 51.0869 60.0688 51.3559 59.0566 50.6973L56.6016 49.0996C55.7237 48.5283 55.4951 47.3734 56.0039 46.4941ZM2.76367 31.3916L5.69531 31.543C6.74199 31.5972 7.51855 32.4845 7.51855 33.5C7.51855 34.5155 6.74198 35.4028 5.69531 35.457L2.76367 35.6084C1.55932 35.6702 0.5 34.7404 0.5 33.5C0.5 32.2596 1.55932 31.3298 2.76367 31.3916ZM64.2363 31.3916C65.4407 31.3298 66.5 32.2596 66.5 33.5C66.5 34.7404 65.4407 35.6702 64.2363 35.6084L61.3047 35.457C60.258 35.4028 59.4814 34.5155 59.4814 33.5C59.4814 32.4845 60.258 31.5972 61.3047 31.543L64.2363 31.3916ZM4.92188 16.9902C5.54551 15.9131 6.93122 15.6441 7.94336 16.3027L10.3984 17.9004C11.2763 18.4717 11.5049 19.6266 10.9961 20.5059C10.4882 21.3835 9.37186 21.767 8.4375 21.29L5.82812 19.958C4.75052 19.4078 4.29937 18.066 4.92188 16.9902ZM59.0566 16.3027C60.0688 15.6441 61.4545 15.9131 62.0781 16.9902C62.7006 18.066 62.2495 19.4078 61.1719 19.958L58.5625 21.29C57.6281 21.767 56.5118 21.3835 56.0039 20.5059C55.4951 19.6266 55.7236 18.4717 56.6016 17.9004L59.0566 16.3027ZM16.9902 4.92188C18.066 4.29937 19.4078 4.75052 19.958 5.82812L21.29 8.4375C21.767 9.37187 21.3835 10.4882 20.5059 10.9961C19.6266 11.5049 18.4717 11.2763 17.9004 10.3984L16.3027 7.94336C15.6441 6.93122 15.9131 5.54551 16.9902 4.92188ZM47.042 5.82812C47.5922 4.75052 48.934 4.29937 50.0098 4.92188C51.0869 5.54551 51.3559 6.93122 50.6973 7.94336L49.0996 10.3984C48.5283 11.2763 47.3734 11.5049 46.4941 10.9961C45.6165 10.4882 45.233 9.37186 45.71 8.4375L47.042 5.82812ZM33.5 0.5C34.7404 0.5 35.6702 1.55933 35.6084 2.76367L35.457 5.69531C35.4028 6.74199 34.5155 7.51855 33.5 7.51855C32.4845 7.51855 31.5972 6.74198 31.543 5.69531L31.3916 2.76367C31.3298 1.55932 32.2596 0.5 33.5 0.5Z" fill="white" stroke="black" stroke-linejoin="round"/>
<path d="M33.5 10.7305C46.0747 10.7305 56.2686 20.9243 56.2686 33.499C56.2685 46.0737 46.0747 56.2676 33.5 56.2676C20.9253 56.2676 10.7315 46.0737 10.7314 33.499C10.7314 20.9243 20.9253 10.7305 33.5 10.7305Z" fill="white" stroke="black" stroke-linejoin="round"/>
</svg>
