<svg width="84" height="73" viewBox="0 0 84 73" fill="none" xmlns="http://www.w3.org/2000/svg">
<path d="M47.7247 0.478542C47.1036 0.159856 46.4271 0 45.7081 0C44.0935 0 42.417 0.813625 40.7285 2.41935L24.2528 18.077C22.5264 19.7166 19.0191 21.1563 16.7465 21.1563H10.7863C4.83911 21.1573 0 26.5227 0 33.1178V39.7221C0 46.3192 4.83911 51.6846 10.7863 51.6846H16.7465C19.0191 51.6846 22.5264 53.1213 24.2528 54.7608L40.7285 70.4195C42.418 72.0242 44.0926 72.8378 45.7081 72.8378C46.4225 72.8378 47.1009 72.678 47.7266 72.3613C48.9289 71.7455 50.9455 69.9984 50.9455 65.2099V7.63004C50.9455 2.83744 48.9262 1.09235 47.7247 0.478542ZM46.3976 65.2099C46.3976 66.9467 45.9752 67.704 45.8227 67.7819C45.819 67.7839 45.7894 67.7993 45.7155 67.7993C45.3643 67.7993 44.6222 67.4817 43.6869 66.5932L37.3718 60.5915L27.2112 50.9356C24.677 48.5285 20.081 46.6441 16.7456 46.6441H10.7854C7.34461 46.6441 4.54521 43.5412 4.54521 39.7252V33.1198C4.54613 29.3028 7.34553 26.1989 10.7863 26.1989H16.7465C20.0828 26.1989 24.6798 24.3124 27.2121 21.9054L43.6887 6.24769C44.624 5.35926 45.3643 5.04263 45.7137 5.04263C45.7876 5.04263 45.8172 5.05697 45.8227 5.06005C45.9761 5.1369 46.3976 5.89314 46.3976 7.63106V65.2099Z" fill="#252629"/>
<path d="M58.659 49.1854C57.5888 49.9047 57.1719 51.3619 57.6886 52.5731C58.0573 53.4359 58.8401 53.9923 59.683 53.9923C60.0554 53.9923 60.427 53.8817 60.7504 53.6716C66.2707 50.1005 69.6985 43.489 69.6985 36.4205C69.6985 29.353 66.2716 22.7426 60.756 19.1704C60.4288 18.9593 60.0591 18.8477 59.6858 18.8477C58.8438 18.8477 58.0592 19.4061 57.6923 20.2689C57.1729 21.4802 57.5906 22.9352 58.6608 23.6546C62.6645 26.3516 65.1515 31.2436 65.1515 36.4215C65.1515 41.5974 62.6645 46.4894 58.659 49.1854Z" fill="#252629"/>
<path d="M60.394 2.86412C59.1898 2.48395 57.9162 3.33856 57.6307 4.69118C57.3478 6.01717 58.0687 7.36159 59.2693 7.75099C70.8513 11.484 78.6321 23.0029 78.6321 36.4195C78.6321 49.834 70.8513 61.3549 59.2702 65.089C58.0669 65.4753 57.3469 66.8187 57.6325 68.1467C57.8737 69.278 58.7628 70.067 59.7933 70.067C59.9975 70.067 60.1981 70.0363 60.3959 69.9728C74.0232 65.6587 83.1792 52.1755 83.1792 36.4195C83.1792 20.6624 74.0222 7.17817 60.394 2.86412Z" fill="#252629"/>
</svg>
